<svg viewBox="0 0 21 27" fill="none" xmlns="http://www.w3.org/2000/svg">
<path d="M21 13.5343C21 11.5312 19.6111 9.81631 17.6565 9.13033C19.6111 8.44436 21 6.73628 21 4.72637C21 2.11966 18.6467 0 15.7468 0C12.8469 0 10.5 2.1128 10.5 4.72637C10.5 2.11966 8.15309 0 5.24679 0C2.34691 0 0 2.1128 0 4.72637C0 6.72942 1.38886 8.44436 3.34354 9.13033C1.38886 9.81631 0 11.5244 0 13.5343C0 15.5099 1.35028 17.2043 3.26638 17.904C1.35028 18.6105 0 20.298 0 22.2736C0 24.8803 2.34691 27 5.24679 27C8.14666 27 10.5 24.8872 10.5 22.2736C10.5 24.8803 12.8533 27 15.7468 27C18.6467 27 21 24.8872 21 22.2736C21 20.298 19.6497 18.6037 17.74 17.904C19.6497 17.2043 21 15.5099 21 13.5343Z" fill="#2C2828"/>
</svg>
