<svg viewBox="0 0 34 19" fill="none" xmlns="http://www.w3.org/2000/svg">
<path d="M24.2953 0C22.86 0 21.5512 0.257158 20.2795 0.85469C19.7813 1.08916 18.993 1.56568 18.8443 1.64132C18.2865 1.9363 17.647 2.10271 16.9628 2.10271C16.353 2.10271 15.7804 1.96656 15.2673 1.73208C14.9549 1.58837 13.8766 0.930334 13.7056 0.862261C12.486 0.317675 11.1325 0.0151306 9.70472 0.0151306C4.35039 3.2319e-06 0 4.2508 0 9.5C0 14.7492 4.35039 19 9.70472 19C10.8276 19 11.8911 18.7807 12.9025 18.4705C13.5197 18.2815 14.5162 17.6461 14.6872 17.5326C14.9401 17.3587 15.2227 17.215 15.5127 17.1015C15.9663 16.9276 16.4497 16.8292 16.9628 16.8292C17.528 16.8292 18.0634 16.9427 18.5542 17.1469C18.7848 17.2452 19.0079 17.3662 19.2161 17.5024C19.3723 17.6083 20.1605 18.0848 20.2423 18.1226C21.4768 18.6823 22.8451 19 24.2953 19C29.657 19 34 14.7492 34 9.5C34 4.2508 29.657 0 24.2953 0Z" fill="#2C2828"/>
</svg>
