<svg viewBox="0 0 23 27" fill="none" xmlns="http://www.w3.org/2000/svg">
<path d="M18.6984 13.5C19.8376 12.6775 20.8258 11.7962 21.5559 10.9475C23.3498 8.85856 23.1484 7.40933 22.6637 6.56721C21.8329 5.13104 19.4474 4.53699 15.1799 6.76306C14.8337 1.82133 13.1154 0 11.4977 0C9.88012 0 8.16178 1.82132 7.8156 6.76958C6.67634 6.18858 5.56225 5.75121 4.58034 5.50315C1.95564 4.85034 0.82268 5.71204 0.338022 6.56069C-0.146635 7.40281 -0.354339 8.8455 1.44582 10.941C2.17595 11.7896 3.17044 12.6709 4.3097 13.5C3.16414 14.3225 2.17595 15.2038 1.44582 16.059C-0.348045 18.148 -0.146635 19.5972 0.338022 20.4393C0.82268 21.2814 1.95564 22.1497 4.58034 21.4969C5.56854 21.2488 6.67634 20.8114 7.8156 20.2304C8.16178 25.1787 9.88012 27 11.4977 27C13.1154 27 14.8337 25.1787 15.1799 20.2304C16.3191 20.8114 17.4269 21.2488 18.4151 21.4969C21.0398 22.1497 22.1728 21.288 22.6574 20.4393C23.5135 18.9705 22.8463 16.4311 18.6984 13.5Z" fill="#2C2828"/>
</svg>
