<svg viewBox="0 0 120 120" fill="none" xmlns="http://www.w3.org/2000/svg">
<path d="M23.1002 12.8243C-3.05664 33.0647 -7.7275 70.743 12.8243 96.8998C33.0647 123.057 70.743 127.727 96.8998 107.176C123.057 86.6239 127.727 49.257 107.176 23.1002C86.9353 -3.05664 49.257 -7.7275 23.1002 12.8243Z" fill="#F1B5C6"/>
<path d="M73.2341 92.5412C59.8443 98.1462 44.8975 95.6551 35.2444 86.3133C34.6216 85.6906 34.6216 85.0678 35.2444 84.445C35.8672 83.8222 36.49 83.8222 37.1128 84.445C45.8317 92.8526 59.8443 95.0323 72.2999 90.05H72.6113C84.7556 85.0678 93.1631 73.8577 93.7859 62.0249C93.7859 61.4021 94.4087 60.7793 95.3429 60.7793C95.9656 60.7793 96.5884 61.4021 96.5884 62.3363C95.6542 75.1033 86.6239 86.9361 73.2341 92.5412C73.5455 92.5412 73.2341 92.5412 73.2341 92.5412Z" fill="black"/>
<path d="M84.4442 38.3579C83.8214 38.6693 83.1987 38.3579 82.8873 38.0465C80.3961 35.5554 76.3481 34.6212 72.6114 35.8668C68.8747 37.1123 66.3835 40.2262 65.7608 43.6515C65.7608 44.2743 65.138 44.8971 64.2038 44.8971C63.581 44.8971 62.9583 44.2743 62.9583 43.3401C63.581 38.6693 66.6949 34.9326 71.6772 33.3756C76.3481 31.8187 81.6417 33.0642 84.7556 36.4895C85.3784 37.1123 85.067 38.0465 84.7556 38.3579C84.7556 38.3579 84.7556 38.3579 84.4442 38.3579Z" fill="black"/>
<path d="M98.1453 63.2698C97.8339 63.2698 97.5225 63.2698 97.2112 63.2698L91.9175 62.3357C91.2947 62.3357 90.6719 61.4015 90.9833 60.7787C90.9833 60.1559 91.9175 59.5332 92.5403 59.8445L98.1453 61.0901C98.7681 61.0901 99.3909 62.0243 99.0795 62.6471C98.7681 62.9585 98.4567 63.2698 98.1453 63.2698Z" fill="black"/>
<path d="M64.5151 42.7182C64.2038 42.7182 63.8924 42.7182 63.581 42.7182L60.1557 42.0954C59.5329 42.0954 58.9101 41.1613 59.2215 40.5385C59.2215 39.9157 60.1557 39.2929 60.7785 39.6043L64.2038 40.2271C64.8265 40.2271 65.4493 41.1613 65.1379 41.784C65.1379 42.0954 64.8265 42.7182 64.5151 42.7182Z" fill="black"/>
<path d="M67.0064 38.046C66.3836 38.3574 66.0722 38.046 65.4494 37.7346L62.6469 34.9321C62.0241 34.3093 62.0241 33.6865 62.6469 33.0638C63.2697 32.441 63.8925 32.441 64.5152 33.0638L67.3178 35.8663C67.9405 36.4891 67.9405 37.1118 67.3178 37.7346L67.0064 38.046Z" fill="black"/>
<path d="M71.9886 35.2445C71.0544 35.5559 70.4316 34.9332 70.1202 34.3104L68.5633 29.0167C68.2519 28.394 68.8747 27.4598 69.4975 27.4598C70.1202 27.1484 71.0544 27.7712 71.0544 28.394L72.6114 33.6876C72.9228 34.3104 72.6114 34.9332 71.9886 35.2445Z" fill="black"/>
<path d="M76.9708 34.6215C76.6594 34.6215 76.348 34.6215 76.0366 34.6215C75.4139 34.3101 74.7911 33.6873 75.1025 33.0645L76.348 27.7709C76.6594 27.1481 77.2822 26.5253 77.905 26.8367C78.5278 27.1481 79.1506 27.7709 78.8392 28.3937L77.905 33.6873C77.905 33.9987 77.5936 34.6215 76.9708 34.6215Z" fill="black"/>
<path d="M82.5758 36.1779C82.2644 36.4893 81.6417 36.1779 81.3303 35.8665C80.7075 35.2437 80.7075 34.6209 81.0189 33.9981L83.1986 31.1956C83.8214 30.5728 84.4442 30.5728 85.0669 30.8842C85.6897 31.507 85.6897 32.1298 85.3783 32.7526L83.1986 35.5551C83.1986 35.8665 82.8872 36.1779 82.5758 36.1779Z" fill="black"/>
<path d="M34.933 88.8043C34.6216 89.1157 33.9988 88.8043 33.6874 88.8043C33.0647 88.4929 33.0647 87.5588 33.376 86.936L36.49 82.2651C36.8013 81.6423 37.7355 81.3309 38.3583 81.9537C38.9811 82.2651 39.2925 83.1993 38.6697 83.8221L35.5558 88.4929C35.5558 88.4929 35.2444 88.8043 34.933 88.8043Z" fill="black"/>
<path d="M29.0166 61.4011C29.0166 61.4011 28.7053 61.4011 28.3939 61.4011C27.7711 61.4011 27.1483 60.7784 26.8369 60.1556C26.8369 55.4847 29.6394 51.1252 33.9989 48.9455C38.3584 46.7658 43.652 47.3886 47.0773 50.1911C47.7001 50.8139 47.7001 51.4366 47.3887 52.0594C46.7659 52.6822 46.1431 52.6822 45.5204 52.3708C42.7178 50.1911 38.6698 49.8797 35.2445 51.4366C31.8192 52.9936 29.328 56.7303 29.6394 60.1556C29.9508 60.467 29.328 61.0898 29.0166 61.4011Z" fill="black"/>
<path d="M46.4545 50.5032C46.1431 50.8146 45.5203 50.5032 45.2089 50.5032C44.5861 50.1918 44.5861 49.2576 44.8975 48.6349L46.7659 45.8323C47.0773 45.2096 48.0114 45.2096 48.6342 45.5209C49.257 45.8323 49.257 46.7665 48.9456 47.3893L47.0773 49.8804C46.7659 50.1918 46.7659 50.5032 46.4545 50.5032Z" fill="black"/>
<path d="M41.4722 48.9445C41.1608 48.9445 41.1608 48.9445 40.8494 48.9445C40.2267 48.9445 39.6039 48.3217 39.6039 47.3875L39.9153 43.6508C39.9153 43.0281 40.5381 42.4053 41.4722 42.4053C42.095 42.4053 42.7178 43.0281 42.7178 43.9622L42.4064 47.6989C42.095 48.3217 41.7836 48.6331 41.4722 48.9445Z" fill="black"/>
<path d="M35.8673 50.1912C35.2445 50.5026 34.6217 50.1912 33.9989 49.5685L31.5078 44.5862C31.1964 43.9634 31.5078 43.0293 32.1306 42.7179C32.7533 42.4065 33.6875 42.7179 33.9989 43.3406L36.49 48.3229C36.8014 48.9457 36.49 49.8799 35.8673 50.1912Z" fill="black"/>
<path d="M31.8191 53.306C31.5077 53.6174 30.8849 53.306 30.5735 53.306L25.9026 50.1921C24.9685 49.8807 24.9685 48.9465 25.2799 48.3237C25.5913 47.7009 26.5254 47.3895 27.1482 48.0123L31.8191 51.1262C32.4419 51.4376 32.7532 52.3718 32.1305 52.9946C32.1305 53.306 31.8191 53.306 31.8191 53.306Z" fill="black"/>
<path d="M28.7053 58.5983C28.3939 58.5983 28.3939 58.5983 28.0825 58.5983L24.6572 58.2869C24.0344 58.2869 23.4116 57.6641 23.4116 56.7299C23.4116 56.1072 24.0344 55.4844 24.9686 55.4844L28.3939 55.7958C29.0167 55.7958 29.6394 56.4185 29.6394 57.3527C29.328 57.9755 29.0167 58.2869 28.7053 58.5983Z" fill="black"/>
</svg>
